<svg xmlns="http://www.w3.org/2000/svg" viewBox="0 0 200.57 195.51"><defs><style>.cls-1{fill:#2d2d2d;}.cls-2{fill:none;stroke:#1b1f23;stroke-linejoin:round;}</style></defs><title>octocat</title><g id="Layer_2" data-name="Layer 2"><g id="Layer_1-2" data-name="Layer 1"><path class="cls-1" d="M108.09.5c2.18.85,4.51.72,6.77,1.06A100,100,0,0,1,133.3,194.93c-4.31,1.52-8.24,0-8.08-5.67.24-8.46.11-16.92.14-25.38a37.32,37.32,0,0,0-.66-8,21.45,21.45,0,0,0-5.91-11.28c4-.65,7.68-1.1,11.31-2,9.68-2.38,18.38-6.45,24.74-14.5A42.54,42.54,0,0,0,163.2,108c1.27-8,1.76-15.9-.38-23.81a37,37,0,0,0-7.54-14.37,3,3,0,0,1-.72-3.26c2.51-8,1.64-15.91-1.13-23.7-.53-1.48-1.66-1.29-2.69-1.28a30.5,30.5,0,0,0-11.29,2.74,71.23,71.23,0,0,0-12.62,6.92,3,3,0,0,1-2.69.47,93.15,93.15,0,0,0-47.45.1,2.81,2.81,0,0,1-2.49-.62c-5.69-3.68-11.57-7-18.18-8.73a20.91,20.91,0,0,0-6.74-.84A1.69,1.69,0,0,0,47.6,43c-2.82,7.93-3.57,16-1,24.09a2.19,2.19,0,0,1-.51,2.41c-6.7,7.9-9.56,17.1-9.28,27.4.22,8.39,1.36,16.59,5,24.24,5.34,11.15,14.6,17.43,26.17,20.76a75.19,75.19,0,0,0,12,2.4c.62.07,1.22.24,2.06.41a21.36,21.36,0,0,0-6,12.37,1.58,1.58,0,0,1-1.2,1.33c-10.65,4.33-21.13,2.53-27.71-8.07A27.3,27.3,0,0,0,40,142.4a14.24,14.24,0,0,0-10.47-2.8c-1,.13-2.23.24-2.61,1.39s.55,1.93,1.26,2.67a6.55,6.55,0,0,0,1.5,1.24c5.77,3.23,9.21,8.53,11.51,14.33,3.89,9.85,11.47,13.35,21.22,13.83a50.59,50.59,0,0,0,11.46-.87c1.35-.24,1.5.12,1.5,1.29,0,5.34.1,10.67.14,16,0,4.84-3.13,7.11-7.75,5.52a98.41,98.41,0,0,1-35.94-21.67A99.36,99.36,0,0,1,1.55,116.6c-.44-2.51-.25-5.12-1.25-7.53v-2a.89.89,0,0,0,0-1.17v-2a3,3,0,0,0,0-2.34V95.79c.34-.34.15-.78.2-1.17s.14-.83-.2-1.17V91.88c.47-4,.72-8,1.57-11.91a99.15,99.15,0,0,1,21.59-44.2A100.12,100.12,0,0,1,76.35,2.84,62.2,62.2,0,0,1,91.74.7a.94.94,0,0,0,.72-.2h1.17c.24.26.57.18.87.2H95.9c.3,0,.62.06.86-.2h7c.26.28.61.18.93.2h1c.4-.05.84.14,1.19-.2Z"/><path class="cls-2" d="M64.18,193.34A99.79,99.79,0,1,1,132,194.91"/></g></g></svg>